<?xml version="1.0" encoding="UTF-8" standalone="no"?><svg xmlns="http://www.w3.org/2000/svg" xmlns:xlink="http://www.w3.org/1999/xlink" contentStyleType="text/css" height="526px" preserveAspectRatio="none" style="width:1713px;height:526px;background:#FFFFFF;" version="1.1" viewBox="0 0 1713 526" width="1713px" zoomAndPan="magnify"><defs/><g><!--MD5=[3df1c3148967c8f0531fb8770d942e18]
cluster raw_data--><g id="cluster_raw_data"><path d="M8.5,7.5 L121.5,7.5 A3.75,3.75 0 0 1 124,10 L131,29.9883 L431.5,29.9883 A2.5,2.5 0 0 1 434,32.4883 L434,346 A2.5,2.5 0 0 1 431.5,348.5 L8.5,348.5 A2.5,2.5 0 0 1 6,346 L6,10 A2.5,2.5 0 0 1 8.5,7.5 " style="stroke:#000000;stroke-width:1.5;fill:none;"/><line style="stroke:#000000;stroke-width:1.5;fill:none;" x1="6" x2="131" y1="29.9883" y2="29.9883"/><text fill="#000000" font-family="sans-serif" font-size="14" font-weight="bold" lengthAdjust="spacing" textLength="112" x="10" y="23.0352">Сырые данные</text></g><!--MD5=[0f53667c90fb55eb50979e37f155646b]
cluster si_type--><g id="cluster_si_type"><path d="M17.5,34.5 L314.5,34.5 A3.75,3.75 0 0 1 317,37 L324,56.9883 L422.5,56.9883 A2.5,2.5 0 0 1 425,59.4883 L425,103 A2.5,2.5 0 0 1 422.5,105.5 L17.5,105.5 A2.5,2.5 0 0 1 15,103 L15,37 A2.5,2.5 0 0 1 17.5,34.5 " style="stroke:#000000;stroke-width:1.5;fill:none;"/><line style="stroke:#000000;stroke-width:1.5;fill:none;" x1="15" x2="324" y1="56.9883" y2="56.9883"/><text fill="#000000" font-family="sans-serif" font-size="14" font-weight="bold" lengthAdjust="spacing" textLength="296" x="19" y="50.0352">Утверждённые типы средств измерений</text></g><!--MD5=[4ef80439e1ef409f8f3a0ec422262701]
cluster server--><g id="cluster_server"><path d="M1199.8666,280.1318 C1208.3259,261.7001 1222.3151,264.436 1232.5694,278.3151 C1242.6929,263.1339 1253.7631,261.0659 1264.4992,277.7003 C1275.6519,262.9765 1290.4181,263.2231 1301.1506,278.2183 C1309.0806,262.2221 1325.6699,262.0457 1335.5055,276.0351 C1344.9381,259.0731 1361.2381,256.0784 1371.9026,274.7779 C1380.7014,259.6384 1394.8248,258.3135 1406.0675,271.8681 C1415.6534,256.1438 1429.8849,259.4482 1437.7892,273.6506 C1448.7454,257.9026 1463.8629,256.8218 1472.5607,275.9051 C1482.9371,261.4419 1497.6392,260.3899 1506.4968,277.5358 C1514.3568,262.2699 1529.8935,258.958 1539.7006,275.5036 C1549.3536,258.4726 1564.2887,257.3561 1575.5173,273.8188 C1588.8223,259.9605 1601.3993,261.5851 1611.1508,278.0014 C1620.3723,261.8793 1632.5388,259.4293 1643.6384,276.1432 C1654.9193,256.6288 1668.982,260.67 1680.3164,276.087 C1698.2348,282.8834 1706.1498,300.3191 1687.2483,313.8706 C1701.3238,324.579 1698.2275,335.6055 1683.1624,342.0955 C1671.9901,363.7837 1656.4247,360.8268 1642.8587,344.6428 C1631.4001,356.8565 1622.5237,357.2299 1613.8638,341.7162 C1607.5271,362.807 1591.4859,363.8004 1578.415,348.2273 C1565.7145,364.06 1553.6586,367.4512 1541.7785,347.3899 C1529.7672,361.8531 1518.6972,359.8351 1510.5569,343.4695 C1501.3916,358.5691 1488.2961,360.283 1476.2117,347.0021 C1463.9592,367.5669 1447.9746,364.4161 1437.1088,345.6243 C1430.6557,363.3749 1416.3702,361.0478 1406.2822,349.4412 C1392.7273,364.1371 1378.4058,361.4299 1368.6192,344.8966 C1357.2469,363.85 1344.6316,365.0696 1332.4841,345.6262 C1323.1818,361.5284 1311.3413,360.5438 1300.9766,346.7534 C1286.8501,360.966 1272.6718,362.989 1263.304,341.7032 C1255.3383,355.7285 1241.0226,356.3158 1232.2672,342.5863 C1220.185,359.824 1208.7929,359.4178 1198.3856,340.995 C1180.2369,333.2207 1182.5124,321.3759 1194.117,309.5612 C1183.246,298.3639 1185.0879,286.3179 1199.8666,280.1318 " style="stroke:#181818;stroke-width:1.0;fill:none;"/><text fill="#000000" font-family="sans-serif" font-size="14" font-weight="bold" lengthAdjust="spacing" textLength="52" x="1409.5" y="294.0352">Сервер</text></g><!--MD5=[ae775502de4ad9ab8ccf5c2418a681be]
entity verification--><g id="elem_verification"><rect fill="#F1F1F1" height="46.4883" rx="2.5" ry="2.5" style="stroke:#181818;stroke-width:0.5;" width="412" x="14" y="294.5"/><rect fill="#F1F1F1" height="10" style="stroke:#181818;stroke-width:0.5;" width="15" x="406" y="299.5"/><rect fill="#F1F1F1" height="2" style="stroke:#181818;stroke-width:0.5;" width="4" x="404" y="301.5"/><rect fill="#F1F1F1" height="2" style="stroke:#181818;stroke-width:0.5;" width="4" x="404" y="305.5"/><text fill="#000000" font-family="sans-serif" font-size="14" lengthAdjust="spacing" textLength="372" x="29" y="328.0352">Сведения о результатах поверки средств измерений</text></g><!--MD5=[be70aba97dfe8733e414a376ece66866]
entity 2022-84825-22.pdf--><g id="elem_2022-84825-22.pdf"><path d="M220,64 L220,95.4883 A2.5,2.5 0 0 0 222.5,97.9883 L379.5,97.9883 A2.5,2.5 0 0 0 382,95.4883 L382,71.5 L372,61.5 L222.5,61.5 A2.5,2.5 0 0 0 220,64 " fill="#F1F1F1" style="stroke:#181818;stroke-width:0.5;"/><path d="M372,61.5 L372,69 A2.5,2.5 0 0 0 374.5,71.5 L382,71.5 " fill="#F1F1F1" style="stroke:#181818;stroke-width:0.5;"/><text fill="#000000" font-family="sans-serif" font-size="14" lengthAdjust="spacing" textLength="142" x="230" y="85.0352">2022-84825-22.pdf</text></g><!--MD5=[4854e6ac542c19e26c7426fa3cd5a8b6]
entity 2022-84825-23.pdf--><g id="elem_2022-84825-23.pdf"><path d="M23,64 L23,95.4883 A2.5,2.5 0 0 0 25.5,97.9883 L182.5,97.9883 A2.5,2.5 0 0 0 185,95.4883 L185,71.5 L175,61.5 L25.5,61.5 A2.5,2.5 0 0 0 23,64 " fill="#F1F1F1" style="stroke:#181818;stroke-width:0.5;"/><path d="M175,61.5 L175,69 A2.5,2.5 0 0 0 177.5,71.5 L185,71.5 " fill="#F1F1F1" style="stroke:#181818;stroke-width:0.5;"/><text fill="#000000" font-family="sans-serif" font-size="14" lengthAdjust="spacing" textLength="142" x="33" y="85.0352">2022-84825-23.pdf</text></g><!--MD5=[0e1fecc31e3549f2a1667c6349b56d9e]
entity postgres--><g id="elem_postgres"><path d="M1194.5,305 C1194.5,295 1249,295 1249,295 C1249,295 1303.5,295 1303.5,305 L1303.5,330.4883 C1303.5,340.4883 1249,340.4883 1249,340.4883 C1249,340.4883 1194.5,340.4883 1194.5,330.4883 L1194.5,305 " fill="#F1F1F1" style="stroke:#181818;stroke-width:0.5;"/><path d="M1194.5,305 C1194.5,315 1249,315 1249,315 C1249,315 1303.5,315 1303.5,305 " fill="none" style="stroke:#181818;stroke-width:0.5;"/><text fill="#000000" font-family="sans-serif" font-size="14" lengthAdjust="spacing" textLength="89" x="1204.5" y="332.5352">База данных</text></g><!--MD5=[e2307af040e3f87d22824e7603ca28ec]
entity api--><g id="elem_api"><rect fill="#F1F1F1" height="46.4883" rx="2.5" ry="2.5" style="stroke:#181818;stroke-width:0.5;" width="193" x="1338.5" y="294.5"/><rect fill="#F1F1F1" height="10" style="stroke:#181818;stroke-width:0.5;" width="15" x="1511.5" y="299.5"/><rect fill="#F1F1F1" height="2" style="stroke:#181818;stroke-width:0.5;" width="4" x="1509.5" y="301.5"/><rect fill="#F1F1F1" height="2" style="stroke:#181818;stroke-width:0.5;" width="4" x="1509.5" y="305.5"/><text fill="#000000" font-family="sans-serif" font-size="14" lengthAdjust="spacing" textLength="153" x="1353.5" y="328.0352">API доступа к данным</text></g><!--MD5=[b1e3d2dcb3697de9e6328d1cb436cbc4]
entity frontend--><g id="elem_frontend"><rect fill="#F1F1F1" height="46.4883" rx="2.5" ry="2.5" style="stroke:#181818;stroke-width:0.5;" width="110" x="1567" y="294.5"/><rect fill="#F1F1F1" height="10" style="stroke:#181818;stroke-width:0.5;" width="15" x="1657" y="299.5"/><rect fill="#F1F1F1" height="2" style="stroke:#181818;stroke-width:0.5;" width="4" x="1655" y="301.5"/><rect fill="#F1F1F1" height="2" style="stroke:#181818;stroke-width:0.5;" width="4" x="1655" y="305.5"/><text fill="#000000" font-family="sans-serif" font-size="14" lengthAdjust="spacing" textLength="70" x="1582" y="328.0352">Фронтенд</text></g><!--MD5=[fbec1ec426eb65c54f8862a50d796124]
entity pdf_processor--><g id="elem_pdf_processor"><rect fill="#F1F1F1" height="145.418" rx="2.5" ry="2.5" style="stroke:#181818;stroke-width:0.5;" width="202" x="455" y="7"/><rect fill="#F1F1F1" height="10" style="stroke:#181818;stroke-width:0.5;" width="15" x="637" y="12"/><rect fill="#F1F1F1" height="2" style="stroke:#181818;stroke-width:0.5;" width="4" x="635" y="14"/><rect fill="#F1F1F1" height="2" style="stroke:#181818;stroke-width:0.5;" width="4" x="635" y="18"/><text fill="#000000" font-family="sans-serif" font-size="14" lengthAdjust="spacing" textLength="162" x="470" y="40.5352">Извлечение фич из PDF</text><text fill="#000000" font-family="sans-serif" font-size="14" lengthAdjust="spacing" textLength="155" x="470" y="57.0234">- номер в гос реестре</text><text fill="#000000" font-family="sans-serif" font-size="14" lengthAdjust="spacing" textLength="135" x="470" y="73.5117">- наименование си</text><text fill="#000000" font-family="sans-serif" font-size="14" lengthAdjust="spacing" textLength="153" x="470" y="90">- единица измерения</text><text fill="#000000" font-family="sans-serif" font-size="14" lengthAdjust="spacing" textLength="125" x="470" y="106.4883">- погрешность си</text><text fill="#000000" font-family="sans-serif" font-size="14" lengthAdjust="spacing" textLength="158" x="470" y="122.9766">- дата утверждения си</text><text fill="#000000" font-family="sans-serif" font-size="14" lengthAdjust="spacing" textLength="126" x="470" y="139.4648">- изготовитель си</text></g><!--MD5=[46d962fe1467e82d8a784d4d273874f8]
entity pandas_dataset--><g id="elem_pandas_dataset"><rect fill="#F1F1F1" height="194.8828" rx="2.5" ry="2.5" style="stroke:#181818;stroke-width:0.5;" width="198" x="461" y="220"/><rect fill="#F1F1F1" height="10" style="stroke:#181818;stroke-width:0.5;" width="15" x="639" y="225"/><rect fill="#F1F1F1" height="2" style="stroke:#181818;stroke-width:0.5;" width="4" x="637" y="227"/><rect fill="#F1F1F1" height="2" style="stroke:#181818;stroke-width:0.5;" width="4" x="637" y="231"/><text fill="#000000" font-family="sans-serif" font-size="14" lengthAdjust="spacing" textLength="109" x="476" y="253.5352">Пандас датасет</text><text fill="#000000" font-family="sans-serif" font-size="14" lengthAdjust="spacing" textLength="155" x="476" y="270.0234">- номер в гос реестре</text><text fill="#000000" font-family="sans-serif" font-size="14" lengthAdjust="spacing" textLength="135" x="476" y="286.5117">- наименование си</text><text fill="#000000" font-family="sans-serif" font-size="14" lengthAdjust="spacing" textLength="153" x="476" y="303">- единица измерения</text><text fill="#000000" font-family="sans-serif" font-size="14" lengthAdjust="spacing" textLength="125" x="476" y="319.4883">- погрешность си</text><text fill="#000000" font-family="sans-serif" font-size="14" lengthAdjust="spacing" textLength="158" x="476" y="335.9766">- дата утверждения си</text><text fill="#000000" font-family="sans-serif" font-size="14" lengthAdjust="spacing" textLength="126" x="476" y="352.4648">- изготовитель си</text><text fill="#000000" font-family="sans-serif" font-size="14" lengthAdjust="spacing" textLength="130" x="476" y="368.9531">- модификация си</text><text fill="#000000" font-family="sans-serif" font-size="14" lengthAdjust="spacing" textLength="57" x="476" y="385.4414">- тип си</text><text fill="#000000" font-family="sans-serif" font-size="14" lengthAdjust="spacing" textLength="107" x="476" y="401.9297">- дата поверки</text></g><!--MD5=[76aeba0ab875879ea5d21554d0007a3a]
entity model--><g id="elem_model"><rect fill="#F1F1F1" height="112.4414" rx="2.5" ry="2.5" style="stroke:#181818;stroke-width:0.5;" width="223" x="694.5" y="261.5"/><rect fill="#F1F1F1" height="10" style="stroke:#181818;stroke-width:0.5;" width="15" x="897.5" y="266.5"/><rect fill="#F1F1F1" height="2" style="stroke:#181818;stroke-width:0.5;" width="4" x="895.5" y="268.5"/><rect fill="#F1F1F1" height="2" style="stroke:#181818;stroke-width:0.5;" width="4" x="895.5" y="272.5"/><text fill="#000000" font-family="sans-serif" font-size="14" lengthAdjust="spacing" textLength="183" x="709.5" y="295.0352">Кластеризация методами:</text><text fill="#000000" font-family="sans-serif" font-size="14" lengthAdjust="spacing" textLength="61" x="709.5" y="311.5234">- DBscan</text><text fill="#000000" font-family="sans-serif" font-size="14" lengthAdjust="spacing" textLength="55" x="709.5" y="328.0117">- TF IDF</text><text fill="#000000" font-family="sans-serif" font-size="14" lengthAdjust="spacing" textLength="139" x="709.5" y="344.5">- Spectral clustering</text><text fill="#000000" font-family="sans-serif" font-size="14" lengthAdjust="spacing" textLength="73" x="709.5" y="360.9883">- k-means</text></g><!--MD5=[b605f6de55ab096df8df9ab186efe05e]
entity pandas_dataset_with_areas--><g id="elem_pandas_dataset_with_areas"><rect fill="#F1F1F1" height="211.3711" rx="2.5" ry="2.5" style="stroke:#181818;stroke-width:0.5;" width="207" x="952.5" y="212"/><rect fill="#F1F1F1" height="10" style="stroke:#181818;stroke-width:0.5;" width="15" x="1139.5" y="217"/><rect fill="#F1F1F1" height="2" style="stroke:#181818;stroke-width:0.5;" width="4" x="1137.5" y="219"/><rect fill="#F1F1F1" height="2" style="stroke:#181818;stroke-width:0.5;" width="4" x="1137.5" y="223"/><text fill="#000000" font-family="sans-serif" font-size="14" lengthAdjust="spacing" textLength="167" x="967.5" y="245.5352">Полный пандас датасет</text><text fill="#000000" font-family="sans-serif" font-size="14" lengthAdjust="spacing" textLength="155" x="967.5" y="262.0234">- номер в гос реестре</text><text fill="#000000" font-family="sans-serif" font-size="14" lengthAdjust="spacing" textLength="135" x="967.5" y="278.5117">- наименование си</text><text fill="#000000" font-family="sans-serif" font-size="14" lengthAdjust="spacing" textLength="153" x="967.5" y="295">- единица измерения</text><text fill="#000000" font-family="sans-serif" font-size="14" lengthAdjust="spacing" textLength="125" x="967.5" y="311.4883">- погрешность си</text><text fill="#000000" font-family="sans-serif" font-size="14" lengthAdjust="spacing" textLength="158" x="967.5" y="327.9766">- дата утверждения си</text><text fill="#000000" font-family="sans-serif" font-size="14" lengthAdjust="spacing" textLength="126" x="967.5" y="344.4648">- изготовитель си</text><text fill="#000000" font-family="sans-serif" font-size="14" lengthAdjust="spacing" textLength="130" x="967.5" y="360.9531">- модификация си</text><text fill="#000000" font-family="sans-serif" font-size="14" lengthAdjust="spacing" textLength="57" x="967.5" y="377.4414">- тип си</text><text fill="#000000" font-family="sans-serif" font-size="14" lengthAdjust="spacing" textLength="107" x="967.5" y="393.9297">- дата поверки</text><text fill="#000000" font-family="sans-serif" font-size="14" lengthAdjust="spacing" textLength="151" x="967.5" y="410.418">- область назначения</text></g><!--MD5=[50bff64abf064dc6b3b7a3674723fb01]
entity f1--><g id="elem_f1"><path d="M1354,485.5 L1354,516.9883 A2.5,2.5 0 0 0 1356.5,519.4883 L1513.5,519.4883 A2.5,2.5 0 0 0 1516,516.9883 L1516,493 L1506,483 L1356.5,483 A2.5,2.5 0 0 0 1354,485.5 " fill="#F1F1F1" style="stroke:#181818;stroke-width:0.5;"/><path d="M1506,483 L1506,490.5 A2.5,2.5 0 0 0 1508.5,493 L1516,493 " fill="#F1F1F1" style="stroke:#181818;stroke-width:0.5;"/><text fill="#000000" font-family="sans-serif" font-size="14" lengthAdjust="spacing" textLength="142" x="1364" y="506.5352">2022-84825-24.pdf</text></g><!--MD5=[c3b2525c6dd6a95f862e3029e6ddf7be]
link si_type to verification--><!--MD5=[a65014640a069074140b33fc5c6bb002]
link si_type to pdf_processor--><g id="link_si_type_pdf_processor"><path d="M425.0595,79.5 C425.2266,79.5 425.3936,79.5 425.5607,79.5 C428.2332,79.5 430.9058,79.5 433.5783,79.5 C438.9234,79.5 444.2685,79.5 449.6136,79.5 " fill="none" id="si_type-to-pdf_processor" style="stroke:#181818;stroke-width:1.0;"/><polygon fill="#181818" points="454.8615,79.5,445.8615,75.5,449.8615,79.5,445.8615,83.5,454.8615,79.5" style="stroke:#181818;stroke-width:1.0;"/></g><!--MD5=[c770ddd65b48bdace66f0cdeb346658d]
link pdf_processor to pandas_dataset--><g id="link_pdf_processor_pandas_dataset"><path d="M557.2219,152.2011 C557.5537,171.9438 557.9193,193.7009 558.2734,214.765 " fill="none" id="pdf_processor-to-pandas_dataset" style="stroke:#181818;stroke-width:1.0;"/><polygon fill="#181818" points="558.3583,219.8163,562.2063,210.7503,558.2742,214.817,554.2074,210.8849,558.3583,219.8163" style="stroke:#181818;stroke-width:1.0;"/></g><!--MD5=[ea15cab455e6cef34a76d2f102b9c38e]
link verification to pandas_dataset--><g id="link_verification_pandas_dataset"><path d="M426.1914,317.5 C436.0579,317.5 445.9243,317.5 455.7908,317.5 " fill="none" id="verification-to-pandas_dataset" style="stroke:#181818;stroke-width:1.0;"/><polygon fill="#181818" points="460.9503,317.5,451.9503,313.5,455.9503,317.5,451.9503,321.5,460.9503,317.5" style="stroke:#181818;stroke-width:1.0;"/></g><!--MD5=[b14eddc07b95792f8f05fc80fc4360a7]
link postgres to api--><g id="link_postgres_api"><path d="M1303.8555,317.5 C1315.3818,317.5 1326.9082,317.5 1338.4346,317.5 " fill="none" id="postgres-api" style="stroke:#181818;stroke-width:1.0;"/></g><!--MD5=[1ef7b4685769adb3a3b13e928b0e1758]
link api to frontend--><g id="link_api_frontend"><path d="M1531.7871,317.5 C1543.4161,317.5 1555.0451,317.5 1566.6741,317.5 " fill="none" id="api-frontend" style="stroke:#181818;stroke-width:1.0;"/></g><!--MD5=[aa7fbc7931cefe66d118c482763a6445]
link pandas_dataset to model--><g id="link_pandas_dataset_model"><path d="M659.457,317.5 C669.3688,317.5 679.2805,317.5 689.1923,317.5 " fill="none" id="pandas_dataset-to-model" style="stroke:#181818;stroke-width:1.0;"/><polygon fill="#181818" points="694.3755,317.5,685.3755,313.5,689.3755,317.5,685.3755,321.5,694.3755,317.5" style="stroke:#181818;stroke-width:1.0;"/></g><!--MD5=[d041be65daed4500f0e89c323e165210]
link model to pandas_dataset_with_areas--><g id="link_model_pandas_dataset_with_areas"><path d="M917.8164,317.5 C927.6224,317.5 937.4284,317.5 947.2344,317.5 " fill="none" id="model-to-pandas_dataset_with_areas" style="stroke:#181818;stroke-width:1.0;"/><polygon fill="#181818" points="952.3623,317.5,943.3623,313.5,947.3623,317.5,943.3623,321.5,952.3623,317.5" style="stroke:#181818;stroke-width:1.0;"/></g><!--MD5=[5a6bbfb2426a9e7be83a5afcafe53c58]
link pandas_dataset_with_areas to postgres--><g id="link_pandas_dataset_with_areas_postgres"><path d="M1159.6621,317.5 C1169.4689,317.5 1179.2757,317.5 1189.0824,317.5 " fill="none" id="pandas_dataset_with_areas-to-postgres" style="stroke:#181818;stroke-width:1.0;"/><polygon fill="#181818" points="1194.2107,317.5,1185.2107,313.5,1189.2107,317.5,1185.2107,321.5,1194.2107,317.5" style="stroke:#181818;stroke-width:1.0;"/></g><!--MD5=[ce7ea705b9133a852d213cc41b780e7e]
link api to f1--><g id="link_api_f1"><path d="M1435,340.7404 C1435,377.7734 1435,449.4029 1435,482.9031 " fill="none" id="api-f1" style="stroke:#181818;stroke-width:1.0;"/></g><!--MD5=[d1fc0f7d67434e346d37221345f09c0b]
@startuml
'https://plantuml.com/component-diagram

folder "Сырые данные" as raw_data {
    folder "Утверждённые типы средств измерений" as si_type {
        file "2022-84825-22.pdf"
        file "2022-84825-23.pdf"
    }
    component "Сведения о результатах поверки средств измерений" as verification
    si_type -[hidden]- verification
}

component pdf_processor [
    Извлечение фич из PDF
    - номер в гос реестре
    - наименование си
    - единица измерения
    - погрешность си
    - дата утверждения си
    - изготовитель си
]
si_type -> pdf_processor

component pandas_dataset [
    Пандас датасет
    - номер в гос реестре
    - наименование си
    - единица измерения
    - погрешность си
    - дата утверждения си
    - изготовитель си
    - модификация си
    - тип си
    - дата поверки
]

pdf_processor -right-> pandas_dataset
verification -right-> pandas_dataset

component model [
    Кластеризация методами:
    - DBscan
    - TF IDF
    - Spectral clustering
    - k-means
]

component pandas_dataset_with_areas [
    Полный пандас датасет
    - номер в гос реестре
    - наименование си
    - единица измерения
    - погрешность си
    - дата утверждения си
    - изготовитель си
    - модификация си
    - тип си
    - дата поверки
    - область назначения
]

cloud "Сервер" as server {
    database "База данных" as postgres

    component "API доступа к данным" as api
    component "Фронтенд" as frontend
    api -left- postgres
    frontend -left- api
}

pandas_dataset -> model
model -right-> pandas_dataset_with_areas

pandas_dataset_with_areas -right-> postgres

file "2022-84825-24.pdf" as f1
f1 -up- api

@enduml

@startuml

folder "Сырые данные" as raw_data {
    folder "Утверждённые типы средств измерений" as si_type {
        file "2022-84825-22.pdf"
        file "2022-84825-23.pdf"
    }
    component "Сведения о результатах поверки средств измерений" as verification
    si_type -[hidden]- verification
}

component pdf_processor [
    Извлечение фич из PDF
    - номер в гос реестре
    - наименование си
    - единица измерения
    - погрешность си
    - дата утверждения си
    - изготовитель си
]
si_type -> pdf_processor

component pandas_dataset [
    Пандас датасет
    - номер в гос реестре
    - наименование си
    - единица измерения
    - погрешность си
    - дата утверждения си
    - изготовитель си
    - модификация си
    - тип си
    - дата поверки
]

pdf_processor -right-> pandas_dataset
verification -right-> pandas_dataset

component model [
    Кластеризация методами:
    - DBscan
    - TF IDF
    - Spectral clustering
    - k-means
]

component pandas_dataset_with_areas [
    Полный пандас датасет
    - номер в гос реестре
    - наименование си
    - единица измерения
    - погрешность си
    - дата утверждения си
    - изготовитель си
    - модификация си
    - тип си
    - дата поверки
    - область назначения
]

cloud "Сервер" as server {
    database "База данных" as postgres

    component "API доступа к данным" as api
    component "Фронтенд" as frontend
    api -left- postgres
    frontend -left- api
}

pandas_dataset -> model
model -right-> pandas_dataset_with_areas

pandas_dataset_with_areas -right-> postgres

file "2022-84825-24.pdf" as f1
f1 -up- api

@enduml

PlantUML version 1.2022.4(Sat Apr 09 16:29:17 MSK 2022)
(GPL source distribution)
Java Runtime: OpenJDK Runtime Environment
JVM: OpenJDK 64-Bit Server VM
Default Encoding: UTF-8
Language: en
Country: US
--></g></svg>